<svg width="16" height="16" viewBox="0 0 16 16" fill="none" xmlns="http://www.w3.org/2000/svg">
<path d="M7.1 13.2L5.95 12.15C4.77222 11.0722 3.70844 10.0027 2.75867 8.94133C1.80844 7.88044 1.33333 6.71111 1.33333 5.43333C1.33333 4.38889 1.68333 3.51667 2.38333 2.81667C3.08333 2.11667 3.95555 1.76667 5 1.76667C5.58889 1.76667 6.14444 1.89156 6.66667 2.14133C7.18889 2.39156 7.63333 2.73333 8 3.16667C8.36666 2.73333 8.81111 2.39156 9.33333 2.14133C9.85555 1.89156 10.4111 1.76667 11 1.76667C12.0444 1.76667 12.9167 2.11667 13.6167 2.81667C14.3167 3.51667 14.6667 4.38889 14.6667 5.43333C14.6667 6.71111 14.1944 7.88333 13.25 8.95C12.3056 10.0167 11.2333 11.0889 10.0333 12.1667L8.9 13.2C8.64444 13.4444 8.34444 13.5667 8 13.5667C7.65555 13.5667 7.35555 13.4444 7.1 13.2V13.2ZM7.36667 4.5C7.04444 4.04444 6.7 3.69711 6.33333 3.458C5.96667 3.21933 5.52222 3.1 5 3.1C4.33333 3.1 3.77778 3.32222 3.33333 3.76667C2.88889 4.21111 2.66667 4.76667 2.66667 5.43333C2.66667 6.01111 2.87222 6.62489 3.28333 7.27467C3.69444 7.92489 4.18622 8.55556 4.75867 9.16667C5.33067 9.77778 5.91955 10.35 6.52533 10.8833C7.13067 11.4167 7.62222 11.8556 8 12.2C8.37778 11.8556 8.86955 11.4167 9.47533 10.8833C10.0807 10.35 10.6696 9.77778 11.242 9.16667C11.814 8.55556 12.3056 7.92489 12.7167 7.27467C13.1278 6.62489 13.3333 6.01111 13.3333 5.43333C13.3333 4.76667 13.1111 4.21111 12.6667 3.76667C12.2222 3.32222 11.6667 3.1 11 3.1C10.4778 3.1 10.0333 3.21933 9.66666 3.458C9.3 3.69711 8.95555 4.04444 8.63333 4.5C8.55555 4.61111 8.46111 4.69444 8.35 4.75C8.23889 4.80556 8.12222 4.83333 8 4.83333C7.87778 4.83333 7.76111 4.80556 7.65 4.75C7.53889 4.69444 7.44444 4.61111 7.36667 4.5V4.5Z" fill="black"/>
</svg>
