<svg width="16" height="16" viewBox="0 0 16 16" fill="none" xmlns="http://www.w3.org/2000/svg">
<path d="M15.9409 1.66012C15.9409 1.66012 16.1951 0.867362 15.649 0.312429C15.15 -0.202867 14.5003 0.0746001 14.5003 0.0746001C13.9259 0.371886 9.0768 3.51321 7.27839 5.59421C6.46864 6.54552 5.33874 9.34992 6.25207 10.3706C7.11832 11.3417 9.98072 10.2021 10.7622 9.37964C12.7019 7.33828 15.6678 2.27451 15.9409 1.66012V1.66012ZM0 15.6127C2.23154 14.0669 1.3747 12.2336 3.04129 11.0147C3.91696 10.3706 5.1316 10.4003 5.94135 11.3021C6.53455 11.966 6.69461 13.8488 5.7907 14.7308C4.31242 16.1677 2.02439 16.2668 0 15.6127V15.6127Z" fill="black"/>
</svg>
